<svg id="SoMe-icon" xmlns="http://www.w3.org/2000/svg" width="104" height="56" viewBox="0 0 104 56">
  <rect id="Rectangle_156" data-name="Rectangle 156" width="104" height="56" fill="#02024a"/>
  <circle id="Ellipse_4" data-name="Ellipse 4" cx="12" cy="12" r="12" transform="translate(40 16)" fill="#f8fbff"/>
  <circle id="Ellipse_3" data-name="Ellipse 3" cx="9" cy="9" r="9" transform="translate(43 19)" fill="#e3ecfc"/>
  <g id="bxl-instagram-alt" transform="translate(44.003 20.019)">
    <path id="Path_354" data-name="Path 354" d="M12.948,5.933A3.62,3.62,0,0,0,12.716,4.7a2.556,2.556,0,0,0-1.46-1.46,3.662,3.662,0,0,0-1.212-.233c-.533-.024-.7-.03-2.056-.03s-1.527,0-2.057.03a3.662,3.662,0,0,0-1.211.233A2.554,2.554,0,0,0,3.26,4.7a3.633,3.633,0,0,0-.232,1.211C3,6.449,3,6.618,3,7.972s0,1.527.031,2.057a3.656,3.656,0,0,0,.232,1.212A2.556,2.556,0,0,0,4.721,12.7a3.65,3.65,0,0,0,1.211.249c.534.024.7.031,2.057.031s1.527,0,2.057-.031a3.653,3.653,0,0,0,1.212-.232,2.558,2.558,0,0,0,1.46-1.46,3.651,3.651,0,0,0,.232-1.212c.024-.533.031-.7.031-2.057S12.979,6.463,12.948,5.933Zm-4.963,4.6a2.563,2.563,0,1,1,2.563-2.563A2.562,2.562,0,0,1,7.985,10.532ZM10.65,5.909a.6.6,0,1,1,.6-.6A.6.6,0,0,1,10.65,5.909Z" transform="translate(0 0)" fill="#080b14"/>
    <circle id="Ellipse_87" data-name="Ellipse 87" cx="2" cy="2" r="2" transform="translate(5.987 5.971)" fill="#080b14"/>
  </g>
</svg>
