<svg width="316" height="323" viewBox="0 0 316 323" fill="none" xmlns="http://www.w3.org/2000/svg" preserveAspectRatio="none">
<path d="M315.524 167.782C243.942 154.285 244.493 140.474 309.045 92.6253C238.366 116.855 231.689 107.056 285.535 41.7785C212.864 93.2242 200.088 89.7556 213.53 1.68131L213.989 0.289119C213.87 0.527022 213.761 0.754496 213.642 0.992398C213.679 0.755928 213.716 0.529707 213.742 0.293416L213.284 1.68561C168.962 90.2978 153.756 94.2539 114.091 44.7652C125.631 108.904 112.435 119.049 56.8727 97.0183C90.703 143.153 82.1679 157.113 0.89504 173.263C72.4773 186.76 71.9264 200.571 7.88099 249.159C78.053 224.19 84.7303 233.989 42.6068 292.408C103.931 247.548 116.466 251.318 108.574 322.295L113.161 308.271L108.585 322.295C147.283 250.781 162.432 246.528 194.968 289.754C190.789 232.141 203.975 221.997 258.532 244.793C225.706 197.892 234.241 183.932 315.514 167.782L315.524 167.782Z" fill="#2E1311"/>
</svg>
