<svg width="291" height="320" viewBox="0 0 291 320" fill="none" xmlns="http://www.w3.org/2000/svg" preserveAspectRatio="none">
<path d="M181.573 0.849739L178.523 50.3144L204.165 4.05424L193.695 54.0256L225.159 11.5117L207.557 60.6281L243.986 23.0205L219.731 69.9408L260.129 38.2645L229.883 81.7095L273.151 56.8293L237.737 95.6135L282.695 78.2085L243.08 111.274L288.499 101.819L245.766 128.264L290.408 127.015L245.719 146.118L288.368 153.112L242.944 164.352L282.435 179.396L237.515 182.467L272.771 205.151L229.58 199.969L259.639 229.674L219.355 216.38L243.398 252.297L207.121 231.253L224.492 272.401L193.209 244.183L203.433 289.44L178 254.815L180.799 302.947L161.909 262.862L157.207 312.555L145.374 268.102L133.299 318.003L128.846 270.395L109.728 319.14L112.777 269.675L87.1364 315.935L97.6048 265.963L66.1411 308.477L83.7435 259.361L47.3152 296.969L71.5702 250.049L31.1708 281.725L61.418 238.28L18.1497 263.159L53.5628 224.376L8.60626 241.781L48.2206 208.715L2.80072 218.171L45.5353 191.726L0.892396 192.974L45.5807 173.87L2.93239 166.878L48.3559 155.637L8.86499 140.593L53.7855 137.522L18.5294 114.838L61.7206 120.021L31.661 90.3152L71.9447 103.61L47.9019 67.6925L84.1803 88.736L66.8093 47.5877L98.0921 75.8068L87.8668 30.5492L113.301 65.1739L110.501 17.0419L129.392 57.1272L134.094 7.43307L145.927 51.8862L158.002 1.9867L162.454 49.5947L181.573 0.849739Z" fill="#2E1311"/>
</svg>
