<svg width="324" height="328" viewBox="0 0 324 328" fill="none" xmlns="http://www.w3.org/2000/svg" preserveAspectRatio="none">
<path d="M179.579 97.0191L236.976 0.805462L203.362 102.746L289.399 28.941L220.127 118.781L319.926 80.1458L226.975 142.352L323.281 145.567L222.722 169.382L298.883 213.892L208.103 195.2L250.95 273.308L185.646 215.339L187.771 313.539L159.236 226.318L120.269 327.632L133.435 226.239L60.1167 313.148L112.709 215.115L17.7144 272.591L100.639 194.87L0.394531 212.975L99.3126 169.003L11.1512 144.608L108.959 141.989L48.1252 79.3117L127.911 118.498L104.923 28.3742L152.891 102.591L171.723 0.605469L179.579 97.0191Z" fill="#2E1311"/>
</svg>
