<svg xmlns="http://www.w3.org/2000/svg" viewBox="0 0 335.15 371.55">
  <defs>
    <clipPath id="clip-path" transform="translate(-.43 -.22)">
      <path id="SVGID" fill="none" d="M0 0h336v372H0z"/>
    </clipPath>
  </defs>
  <g id="Layer_2" data-name="Layer 2">
    <g id="Layer_1-2" data-name="Layer 1">
      <g clip-path="url(#clip-path)">
        <path fill="#e0ecfd" d="M65.35 333.55c73.79 0 124.45 38.22 160 38.22s110.22-20.44 110.22-184S235.12.22 196 .22C12.91.22-65.31 333.55 65.35 333.55z" transform="translate(-.43 -.22)"/>
      </g>
      <path fill="#fff056" d="M283.52 121.16v37.16h-209v-37.16a18.64 18.64 0 0118.58-18.58h171.84a18.64 18.64 0 0118.58 18.58z" transform="translate(-.43 -.22)"/>
      <path fill="#f3f3f1" d="M283.52 158.32v116.13A18.64 18.64 0 01264.94 293H93.06a18.64 18.64 0 01-18.58-18.58v-116.1z" transform="translate(-.43 -.22)"/>
      <path fill="#e5d145" d="M114 102.58H93.06a18.64 18.64 0 00-18.58 18.58v37.16h20.91v-37.16A18.63 18.63 0 01114 102.58z" transform="translate(-.43 -.22)"/>
      <path fill="#d5dbe1" d="M95.39 274.45V158.32H74.48v116.13A18.64 18.64 0 0093.06 293H114a18.63 18.63 0 01-18.58-18.58z" transform="translate(-.43 -.22)"/>
      <path d="M283.52 165.29h-209a7 7 0 01-7-7v-37.13a25.57 25.57 0 0125.54-25.55h171.88a25.57 25.57 0 0125.54 25.55v37.16a7 7 0 01-7 7zM81.45 151.35h195.1v-30.19a11.63 11.63 0 00-11.61-11.61H93.06a11.63 11.63 0 00-11.61 11.61z" class="cls-8" transform="translate(-.43 -.22)"/>
      <path d="M264.94 300H93.06a25.56 25.56 0 01-25.54-25.55V158.32a7 7 0 017-7h209a7 7 0 017 7v116.13A25.56 25.56 0 01264.94 300zM81.45 165.29v109.16a11.63 11.63 0 0011.61 11.61h171.88a11.63 11.63 0 0011.61-11.61V165.29z" class="cls-8" transform="translate(-.43 -.22)"/>
      <path d="M113.54 83.78h13.94v41.81h-13.94zM229.67 83.78h13.94v41.81h-13.94z" class="cls-8"/>
    </g>
  </g>
</svg>