<svg xmlns="http://www.w3.org/2000/svg" viewBox="0 0 689.79 116.39">
  <g id="Layer_2" data-name="Layer 2">
    <g id="Layer_1-2" data-name="Layer 1">
      <g>
        <g>
          <path d="M149.85,17.53H164v33.6l33.49-33.6H215L177.18,54.38,220,96.6H201.59L164,58.86V96.6H149.85Z"/>
          <path d="M221.75,42.62H234.3v32c0,4.82.44,7.39,1.9,9.63,1.23,1.91,3.7,3.92,8.18,3.92A11.52,11.52,0,0,0,253,84.51c2.69-3,3.81-6.16,3.81-14.11V42.62h12.54v54H257V88.88c-.89,3.24-6.38,9.07-16.35,9.07-6.72,0-11.87-2.69-15.34-7.51-3.14-4.59-3.59-9.18-3.59-15.79Z"/>
          <path d="M282.34,17.53h12.55V96.6H282.34Z"/>
          <path d="M312.81,52.25H302.39V42.62h10.42V24.81h12.54V42.62h11v9.63h-11V80.36c0,4.82,1.79,6.72,5.71,6.72a28.41,28.41,0,0,0,5.27-.44v10a37.46,37.46,0,0,1-8.07.79c-8.51,0-15.45-3.36-15.45-12.66Z"/>
          <path d="M345,42.62h12.54v32c0,4.82.45,7.39,1.91,9.63,1.23,1.91,3.69,3.92,8.17,3.92a11.56,11.56,0,0,0,8.63-3.69c2.68-3,3.8-6.16,3.8-14.11V42.62h12.55v54H380.23V88.88c-.9,3.24-6.39,9.07-16.35,9.07-6.72,0-11.88-2.69-15.35-7.51C345.4,85.85,345,81.26,345,74.65Z"/>
          <path d="M405.54,42.62h12.21v8a16.54,16.54,0,0,1,15.34-9.29,32,32,0,0,1,3.81.22V53.26c-.78-.34-2-.45-4.82-.45a13.24,13.24,0,0,0-11.42,5.6c-2.35,3.47-2.58,7.73-2.58,12.1V96.6H405.54Z"/>
          <path d="M444.52,42.62h12.2v8a16.54,16.54,0,0,1,15.35-9.29,32,32,0,0,1,3.8.22V53.26c-.78-.34-2-.45-4.81-.45a13.22,13.22,0,0,0-11.42,5.6c-2.36,3.47-2.58,7.73-2.58,12.1V96.6H444.52Z"/>
          <path d="M515.07,96.6c0-.56-.78-4.93-.78-7-2.8,5.26-8.51,8.4-16.58,8.4-11.76,0-18.81-7.73-18.81-16,0-13,10-15.68,22.06-17.81A65,65,0,0,0,508.58,63c5.71-.89,6.27-2.8,6.27-5.37,0-3.47-3-7.06-10.19-7.06-6.72,0-11.31,3.14-11.65,10.64l-12.32-2.69a19,19,0,0,1,8.62-13.1,28.16,28.16,0,0,1,15.35-4.14c12,0,22.17,4.7,22.17,18.59V82.6a88.46,88.46,0,0,0,.79,14Zm-14.78-7.95c4.48,0,14-2.13,14-12.77v-5.6c-.9.34-4.82,1-6.61,1.35l-4,.78c-6.27,1.23-12.1,2.35-12.1,8.74C491.55,85.18,495.47,88.65,500.29,88.65ZM492.9,25.59A11.31,11.31,0,1,1,504.21,37,11.36,11.36,0,0,1,492.9,25.59Zm17,0a5.77,5.77,0,1,0-5.71,5.83A5.73,5.73,0,0,0,509.92,25.59Z"/>
          <path d="M578.8,89.43C576.11,94.25,568.61,98,562.23,98c-20.61,0-25.65-18.82-25.65-28.23,0-9.85,5.26-28.44,25.87-28.44a19.24,19.24,0,0,1,15.68,7.84V17.53h12.54V96.6H578.8Zm-.56-19.71c0-14.89-8.73-18.81-13.66-18.81-11.65,0-15.35,11.42-15.35,18.7,0,6.5,3.36,18.59,15,18.59C569.51,88.2,578.24,84.51,578.24,69.72Z"/>
          <path d="M651.27,80.92c-1.8,7.51-10.42,17-23.41,17C609,98,600.75,84.06,600.75,69.72c0-14.78,9.08-28.44,25.88-28.44,15.34,0,25.64,11.87,25.64,28.22a32.05,32.05,0,0,1-.11,3.58H613.41c.34,8.51,4.7,15.57,13.66,15.57,7.84,0,11.43-5.26,12.55-10.53ZM639.62,63.67c0-6.6-4.26-13.1-13-13.1-8.4,0-13.11,5.83-13.11,13.1Z"/>
          <path d="M666.27,52.25H655.86V42.62h10.41V24.81h12.55V42.62h11v9.63h-11V80.36c0,4.82,1.79,6.72,5.71,6.72a28.3,28.3,0,0,0,5.26-.44v10a37.29,37.29,0,0,1-8.06.79c-8.51,0-15.46-3.36-15.46-12.66Z"/>
        </g>
        <path d="M52.38,66.18,81.47,18.29,71.16,21.45l27.6,16.46-7-12.14V90.45l6.82-12-23.28,14,11.47,1.66L51.05,54ZM0,87.29l28.93,17.29L55.7,60.86l-8.81.66L80.14,98.93,99.76,87.29V29.1L75.15,14.47,34.75,80.81V9L0,29.1Zm43.56-74L56.7,5.65l-11,1L63,16.79l4.49-6.65L50.21,0,43.56,4Zm-6.15,95.61,12.8,7.48,22.12-13L67,97.27l-23.78,13.8,14-.17-15.47-8.64ZM8,89.79v-63L2.66,36.91,31.92,19.79l-5.15-2.66v83.13l3.16-4.32L2.66,79.48Z"/>
      </g>
    </g>
  </g>
</svg>
