<svg xmlns="http://www.w3.org/2000/svg" viewBox="0 0 334.17 370.97">
  <defs/>
  <defs>
    <clipPath id="clip-path" transform="translate(-3.91 -.52)">
      <path fill="none" d="M0 0h336v372H0z"/>
    </clipPath>
    <style>
      .cls-4{fill:#00ff89}.cls-5{fill:#0c6}.cls-6{fill:#00004d}
    </style>
  </defs>
  <g id="Layer_2" data-name="Layer 2">
    <g id="Layer_1-2" data-name="Layer 1">
      <g clip-path="url(#clip-path)">
        <path fill="#e0ecfd" d="M271.45 35.75C197.69 37.12 146.31-.14 110.77.53S.94 23 4 186.55 107.94 372.2 147 371.47c183.11-3.42 255.09-338.16 124.45-335.72z" transform="translate(-3.91 -.52)"/>
      </g>
      <path d="M263.67 164.67a13.34 13.34 0 11-13.34-13.34 13.34 13.34 0 0113.34 13.34zM93 164.67a13.34 13.34 0 11-13.33-13.34A13.33 13.33 0 0193 164.67zM189 159.33a24 24 0 11-24-24 24 24 0 0124 24zM114.33 252.67v-16a21.33 21.33 0 0121.34-21.34h58.66a21.33 21.33 0 0121.34 21.34v16z" class="cls-4" transform="translate(-3.91 -.52)"/>
      <path d="M157 215.33h-21.33a21.33 21.33 0 00-21.34 21.34v16h21.34v-16A21.33 21.33 0 01157 215.33zM162.33 159.33a23.9 23.9 0 0113.34-21.39 23.69 23.69 0 00-10.67-2.61 24 24 0 1010.67 45.4 23.93 23.93 0 01-13.34-21.4z" class="cls-5" transform="translate(-3.91 -.52)"/>
      <path d="M250.33 186a21.34 21.34 0 1121.34-21.33A21.36 21.36 0 01250.33 186zm0-26.67a5.34 5.34 0 105.34 5.34 5.34 5.34 0 00-5.34-5.34zM293 231.33h-16V226a13.35 13.35 0 00-13.33-13.33H237v-16h26.67A29.35 29.35 0 01293 226zM79.67 186A21.34 21.34 0 11101 164.67 21.36 21.36 0 0179.67 186zm0-26.67a5.34 5.34 0 105.33 5.34 5.35 5.35 0 00-5.33-5.34zM53 231.33H37V226a29.35 29.35 0 0129.33-29.33H93v16H66.33A13.35 13.35 0 0053 226zM165 191.33a32 32 0 1132-32 32 32 0 01-32 32zm0-48a16 16 0 1016 16 16 16 0 00-16-16zM223.67 252.67h-16v-16a13.36 13.36 0 00-13.34-13.34h-58.66a13.36 13.36 0 00-13.34 13.34v16h-16v-16a29.36 29.36 0 0129.34-29.34h58.66a29.36 29.36 0 0129.34 29.34z" class="cls-6" transform="translate(-3.91 -.52)"/>
    </g>
  </g>
</svg>