<svg xmlns="http://www.w3.org/2000/svg" viewBox="0 0 371.55 335.15">
  <defs>
    <clipPath id="clip-path" transform="translate(-.22 -.43)">
      <path id="SVGID" fill="none" d="M0 0h372v336H0z"/>
    </clipPath>
    <style>
      .cls-4{fill:#f3f3f1}.cls-5{fill:#ff118a}.cls-6{fill:#d5dbe1}.cls-7{fill:#e51085}.cls-8{fill:#00004d}
    </style>
  </defs>
  <g id="Layer_2" data-name="Layer 2">
    <g id="Layer_1-2" data-name="Layer 1">
      <g clip-path="url(#clip-path)">
        <path fill="#e0ecfd" d="M333.55 65.36c0 73.78 38.22 124.44 38.22 160s-20.44 110.21-184 110.21S.22 235.13.22 196C.22 12.91 333.55-65.31 333.55 65.36z" transform="translate(-.22 -.43)"/>
      </g>
      <path d="M233.81 182.76A107.77 107.77 0 01202.27 259l-.32.32-6.12-42.7zM171.24 120.19A107.77 107.77 0 0095 151.73l-.32.32 42.71 6.12z" class="cls-4" transform="translate(-.22 -.43)"/>
      <path d="M170.53 121l-43 48.13 57.33 57.34 48.13-43c33-28.16 56.68-74.84 55.66-118.17-43.33-1-90 22.71-118.15 55.67zm51 11.46a16 16 0 1122.59 0 16 16 0 01-22.59 0zM136.19 248.87c-8.57 8.58-52.91 21.85-52.91 21.85s13.27-44.34 21.85-52.91a22 22 0 0131.06 31.06z" class="cls-5" transform="translate(-.22 -.43)"/>
      <path d="M216.38 216.58l15.51-13.82a107.51 107.51 0 001.92-20l-38 33.82 6.12 42.7.32-.32a107.17 107.17 0 0017-22.32zM115.27 152.05l.31-.32a107.6 107.6 0 0153.43-29l2.23-2.5A107.77 107.77 0 0095 151.73l-.32.32 42.71 6.12 2.32-2.61z" class="cls-6" transform="translate(-.22 -.43)"/>
      <path d="M125.67 217.81a21.72 21.72 0 015.26-3.77 21.86 21.86 0 00-25.8 3.77c-8.58 8.57-21.85 52.91-21.85 52.91s10.89-3.27 22.93-7.6c4.21-13 13.12-39 19.46-45.31zM147 169.11l43-48.13c24-28.07 61.4-49.38 98.74-54.48v-1.19c-43.34-1-90 22.7-118.17 55.66l-43 48.13 57.33 57.34 10.25-9.15z" class="cls-7" transform="translate(-.22 -.43)"/>
      <path d="M184.89 233.29a6.82 6.82 0 01-4.84-2l-12.58-12.59 9.68-9.68 8 8 43.31-38.66c31-26.51 51.84-68.36 53.32-106.15-37.79 1.49-79.63 22.29-106 53.21L137 168.84l28.56 28.56-9.69 9.69L122.72 174a6.84 6.84 0 01-.27-9.4l43-48.13c30.43-35.62 79.83-58.93 123.44-57.95a6.84 6.84 0 016.68 6.68c1 43.35-22.32 93-58.06 123.53l-48 42.87a6.83 6.83 0 01-4.57 1.74z" class="cls-8" transform="translate(-.22 -.43)"/>
      <path d="M202 266a6.28 6.28 0 01-2-.32 6.81 6.81 0 01-4.76-5.37l-6.12-42.71 13.55-1.94 4 27.92A100.11 100.11 0 00227 182.77h13.7a113.85 113.85 0 01-33.55 81A7.45 7.45 0 01202 266zM136.46 164.94l-42.71-6.11a6.85 6.85 0 01-3.83-11.66 114.06 114.06 0 0181.32-33.84V127a100.23 100.23 0 00-60.82 20.34l28 4zM232.87 144a22.82 22.82 0 1116.13-6.73 22.73 22.73 0 01-16.13 6.73zm0-31.94a9.14 9.14 0 106.44 2.68 9 9 0 00-6.44-2.68zM83.28 277.57a6.86 6.86 0 01-6.56-8.82C79 261.07 91 222.28 100.3 213c10.89-10.88 29.87-10.87 40.74 0a28.81 28.81 0 010 40.75C131.72 263 92.92 275 85.25 277.29a7 7 0 01-2 .28zm37.39-59.34a15.07 15.07 0 00-10.67 4.42c-4 4-10.84 21.58-16.17 37.55 16-5.34 33.56-12.2 37.54-16.18a15.11 15.11 0 00-10.68-25.79z" class="cls-8" transform="translate(-.22 -.43)"/>
    </g>
  </g>
</svg>